<svg width="18" height="18" viewBox="0 0 18 18" fill="none" xmlns="http://www.w3.org/2000/svg">
<path d="M16.9295 17.2525L10.5321 11.1875C10.0456 11.5872 9.47831 11.8985 8.83031 12.1214C8.18231 12.3444 7.49277 12.4558 6.76169 12.4558C5.00766 12.4558 3.52318 11.8793 2.30824 10.7263C1.09331 9.57321 0.48584 8.18188 0.48584 6.55225C0.48584 4.92262 1.09396 3.53128 2.31021 2.37824C3.52646 1.2252 4.99813 0.648682 6.7252 0.648682C8.45228 0.648682 9.91989 1.2252 11.128 2.37824C12.3362 3.53128 12.9402 4.92377 12.9402 6.55571C12.9402 7.21448 12.8267 7.85134 12.5997 8.46629C12.3727 9.08125 12.0321 9.65777 11.578 10.1959L17.9998 16.2378L16.9295 17.2525ZM6.73736 11.0722C8.05497 11.0722 9.17493 10.6302 10.0973 9.74617C11.0196 8.86217 11.4807 7.79753 11.4807 6.55225C11.4807 5.30696 11.0196 4.24232 10.0973 3.35833C9.17493 2.47433 8.05497 2.03233 6.73736 2.03233C5.40625 2.03233 4.2748 2.47433 3.34301 3.35833C2.41123 4.24232 1.94534 5.30696 1.94534 6.55225C1.94534 7.79753 2.41123 8.86217 3.34301 9.74617C4.2748 10.6302 5.40625 11.0722 6.73736 11.0722Z" fill="black" fill-opacity="0.35"/>
</svg>
